<?xml version="1.0" encoding="UTF-8"?>
<!DOCTYPE svg PUBLIC "-//W3C//DTD SVG 1.1//EN" "http://www.w3.org/Graphics/SVG/1.1/DTD/svg11.dtd">
<!-- Creator: CorelDRAW 2018 (64-Bit) -->
<svg xmlns="http://www.w3.org/2000/svg" xml:space="preserve" width="2480px" height="3508px" version="1.1" style="shape-rendering:geometricPrecision; text-rendering:geometricPrecision; image-rendering:optimizeQuality; fill-rule:evenodd; clip-rule:evenodd"
viewBox="0 0 2480 3507.43"
 xmlns:xlink="http://www.w3.org/1999/xlink"
 enable-background="new 0 0 300 300">
 <defs>
  <style type="text/css">
   <![CDATA[
    .fil0 {fill:#FEFEFE}
   ]]>
  </style>
 </defs>
 <g id="Слой_x0020_1">
  <metadata id="CorelCorpID_0Corel-Layer"/>
  <g id="_2067261377808">
   <path class="fil0" d="M1159.28 893.21l73.35 -73.36 0 178.7c0,17.67 14.32,31.99 31.99,31.99 17.67,0 31.99,-14.32 31.99,-31.99l0 -178.7 73.35 73.36c6.25,6.24 14.44,9.37 22.62,9.37 8.18,0 16.37,-3.13 22.62,-9.37 12.49,-12.49 12.49,-32.74 0,-45.24l-127.96 -127.95c-12.5,-12.5 -32.74,-12.5 -45.24,0l-127.96 127.95c-12.49,12.5 -12.49,32.75 0,45.24 12.5,12.49 32.75,12.5 45.24,0z"/>
   <path class="fil0" d="M1893.45 2115.63c-18.89,0 -34.2,15.31 -34.2,34.21 0,18.88 15.31,34.19 34.2,34.19 18.89,0 34.2,-15.31 34.2,-34.19 0,-18.89 -15.31,-34.21 -34.2,-34.21z"/>
   <path class="fil0" d="M615.45 2319.5c-12.49,-12.49 -32.74,-12.49 -45.23,0l-25.37 25.37 -25.36 -25.37c-12.5,-12.49 -32.75,-12.49 -45.24,0 -12.49,12.49 -12.49,32.74 0,45.23l25.37 25.37 -25.37 25.37c-12.49,12.49 -12.49,32.74 0,45.23 6.25,6.25 14.44,9.38 22.62,9.38 8.18,0 16.37,-3.13 22.62,-9.38l25.36 -25.36 25.37 25.36c6.25,6.25 14.44,9.38 22.62,9.38 8.18,0 16.37,-3.13 22.61,-9.38 12.49,-12.49 12.49,-32.74 0,-45.23l-25.36 -25.37 25.36 -25.37c12.5,-12.49 12.5,-32.74 0,-45.23z"/>
   <path class="fil0" d="M1792.45 2246.15c-61.73,0 -111.96,50.23 -111.96,111.96 0,61.73 50.23,111.97 111.96,111.97 61.73,0 111.96,-50.24 111.96,-111.97 0,-61.73 -50.23,-111.96 -111.96,-111.96zm0 159.95c-26.46,0 -47.98,-21.52 -47.98,-47.99 0,-26.46 21.52,-47.98 47.98,-47.98 26.46,0 47.98,21.52 47.98,47.98 0,26.47 -21.52,47.99 -47.98,47.99z"/>
   <path class="fil0" d="M1617.98 1236.11c-102.14,-97.49 -236.22,-147.59 -377.85,-140.92 -265.82,12.45 -484.39,239.31 -487.25,505.69 -1.97,184.32 96.23,356.18 256.26,448.55 39.24,22.63 63.6,63.81 63.6,107.45l-0.06 441.15c0,8.49 3.38,16.62 9.37,22.62 6,6 14.13,9.37 22.62,9.37l319.9 0c17.66,0 31.99,-14.32 31.99,-31.98l0.06 -442.65c0,-43.33 23.93,-83.02 64.01,-106.19 157.84,-91.29 255.89,-260.92 255.89,-442.73 0,-141.27 -56.31,-272.81 -158.54,-370.36l0 0zm-481.32 1329.93l0.02 -127.95 159.93 0c17.67,0 31.99,-14.33 31.99,-31.99 0,-17.67 -14.32,-31.99 -31.99,-31.99l-159.92 0 0.01 -31.99 255.92 0 -0.02 127.96 -159.97 0c-17.67,0 -31.99,14.32 -31.99,31.99 0,17.66 14.32,31.98 31.99,31.98l159.95 0 0 31.99 -255.92 0zm351.95 -572.23c-60.09,34.74 -95.97,95.15 -95.97,161.58l-0.02 122.75 -96.01 0 0 -479.85 76.77 57.58c5.58,4.18 12.33,6.4 19.2,6.4 1.8,0 3.6,-0.16 5.4,-0.45 8.67,-1.49 16.34,-6.49 21.21,-13.8l63.98 -95.97c9.8,-14.7 5.83,-34.56 -8.87,-44.36 -14.75,-9.84 -34.56,-5.83 -44.36,8.87l-45.22 67.83 -100.9 -75.68c-11.37,-8.52 -27.02,-8.52 -38.4,0l-100.9 75.68 -45.22 -67.83c-9.83,-14.7 -29.69,-18.71 -44.36,-8.87 -14.7,9.8 -18.67,29.66 -8.87,44.36l63.98 95.97c4.87,7.31 12.54,12.31 21.21,13.8 8.64,1.4 17.55,-0.66 24.6,-5.95l76.76 -57.58 0 479.85 -95.91 0 0.01 -121.26c0,-66.42 -36.62,-128.83 -95.59,-162.87 -140.06,-80.81 -225.99,-231.19 -224.27,-392.43 2.5,-233.08 193.72,-431.58 426.27,-442.47 123.57,-5.9 241.3,37.99 330.69,123.29 89.46,85.37 138.73,200.45 138.73,324.07 -0.01,159.03 -85.81,307.46 -223.94,387.34z"/>
   <path class="fil0" d="M2150.96 1551.75l-127.96 -127.96c-12.49,-12.49 -32.74,-12.49 -45.23,0 -12.5,12.49 -12.5,32.74 0,45.23l73.35 73.35 -178.7 0c-17.66,0 -31.99,14.33 -31.99,31.99 0,17.67 14.33,31.99 31.99,31.99l178.7 0.01 -73.35 73.35c-12.5,12.49 -12.5,32.74 0,45.23 6.24,6.25 14.43,9.37 22.61,9.37 8.18,0 16.37,-3.12 22.62,-9.37l127.96 -127.96c12.5,-12.49 12.5,-32.74 0,-45.23l0 0z"/>
   <path class="fil0" d="M656.82 1542.37l-178.7 0 73.35 -73.35c12.5,-12.49 12.5,-32.74 0,-45.23 -12.49,-12.49 -32.74,-12.49 -45.23,0l-127.96 127.96c-12.49,12.49 -12.49,32.74 0,45.23l127.96 127.96c6.25,6.25 14.44,9.37 22.62,9.37 8.18,0 16.37,-3.13 22.61,-9.37 12.5,-12.49 12.5,-32.74 0,-45.23l-73.35 -73.36 178.7 0.01c17.66,0 31.99,-14.33 31.99,-31.99 0,-17.67 -14.33,-31.99 -31.99,-31.99l0 -0.01z"/>
   <path class="fil0" d="M1671.78 1167.2c6.25,6.25 14.44,9.37 22.62,9.37 8.18,0 16.37,-3.13 22.62,-9.37l126.35 -126.35 0 103.73c0,17.67 14.32,31.99 31.99,31.99 17.66,0 31.99,-14.32 31.99,-31.99l0 -180.95c0,-17.67 -14.33,-31.99 -31.99,-31.99l-180.96 0c-17.66,0 -31.99,14.32 -31.99,31.99 0,17.66 14.33,31.98 31.99,31.98l103.74 0 -126.36 126.36c-12.49,12.49 -12.49,32.73 0,45.23z"/>
   <path class="fil0" d="M653.88 1176.57c17.67,0 31.99,-14.32 31.99,-31.99l0 -103.73 126.35 126.35c6.25,6.25 14.44,9.37 22.62,9.37 8.18,0 16.37,-3.12 22.62,-9.37 12.49,-12.49 12.49,-32.74 0,-45.23l-126.36 -126.35 103.74 -0.01c17.66,0 31.99,-14.32 31.99,-31.98 0,-17.67 -14.33,-31.99 -31.99,-31.99l-180.96 0c-17.66,0 -31.99,14.32 -31.99,31.99l0 180.95c0,17.67 14.33,31.99 31.99,31.99l0 0z"/>
  </g>
 </g>
</svg>
