<?xml version="1.0" encoding="UTF-8"?>
<!DOCTYPE svg PUBLIC "-//W3C//DTD SVG 1.1//EN" "http://www.w3.org/Graphics/SVG/1.1/DTD/svg11.dtd">
<!-- Creator: CorelDRAW 2018 (64-Bit) -->
<svg xmlns="http://www.w3.org/2000/svg" xml:space="preserve" width="2480px" height="3508px" version="1.1" style="shape-rendering:geometricPrecision; text-rendering:geometricPrecision; image-rendering:optimizeQuality; fill-rule:evenodd; clip-rule:evenodd"
viewBox="0 0 2480 3507.43"
 xmlns:xlink="http://www.w3.org/1999/xlink"
 enable-background="new 0 0 512 512">
 <defs>
  <style type="text/css">
   <![CDATA[
    .fil0 {fill:#FEFEFE}
   ]]>
  </style>
 </defs>
 <g id="Слой_x0020_1">
  <metadata id="CorelCorpID_0Corel-Layer"/>
  <g id="_2067859468384">
   <path class="fil0" d="M1892.19 1495.89l67.76 -67.76 -66.28 -66.28 -67.77 67.76c-70.7,-60.71 -155.36,-105.59 -248.43,-129.1 23.52,-31.33 37.48,-70.24 37.48,-112.35 0,-103.37 -84.1,-187.48 -187.47,-187.48 -103.38,0 -187.48,84.11 -187.48,187.48 0,42.11 13.96,81.02 37.49,112.35 -93.08,23.51 -177.73,68.39 -248.44,129.1l-67.76 -67.76 -66.28 66.28 67.76 67.76c-41.8,48.68 -76.08,103.98 -101.07,164.09l-234.12 0 0 93.73 203.79 0c-7.18,30.45 -12.11,61.75 -14.54,93.74l-376.73 0 0 93.74 376.73 0c2.44,31.99 7.36,63.3 14.54,93.74l-297.53 0 0 93.74 327.86 0c13.62,32.77 30,64.11 48.87,93.73l-189.25 0 0 93.74 262.57 0c111.64,117.35 269.22,190.6 443.59,190.6 337.69,0 612.42,-274.73 612.42,-612.42 0,-152.01 -55.69,-291.25 -147.71,-398.43l0 0zm-558.45 -307.73c0,-51.69 42.05,-93.74 93.74,-93.74 51.68,0 93.73,42.05 93.73,93.74 0,51.69 -42.05,93.74 -93.73,93.74 -51.69,0 -93.74,-42.05 -93.74,-93.74zm93.74 1224.85c-286.01,0 -518.69,-232.68 -518.69,-518.69 0,-286 232.68,-518.68 518.69,-518.68 286,0 518.68,232.68 518.68,518.68 0,286.01 -232.68,518.69 -518.68,518.69z"/>
   <path class="fil0" d="M1727.96 1593.84c-80.27,-80.26 -186.98,-124.46 -300.48,-124.46 -113.51,0 -220.22,44.2 -300.48,124.46 -80.27,80.26 -124.47,186.97 -124.47,300.48 0,113.51 44.2,220.22 124.47,300.49l66.28 -66.29c-62.56,-62.55 -97.01,-145.73 -97.01,-234.2 0,-88.47 34.45,-171.64 97.01,-234.2 62.55,-62.55 145.73,-97.01 234.2,-97.01 72.64,0 141.71,23.25 198.73,66.19l-138.15 138.15c-18.36,-8.8 -38.9,-13.74 -60.58,-13.74 -77.53,0 -140.61,63.08 -140.61,140.61 0,77.53 63.07,140.61 140.61,140.61 77.53,0 140.6,-63.08 140.6,-140.61 0,-21.68 -4.94,-42.23 -13.74,-60.59l138.15 -138.14c42.95,57.02 66.19,126.08 66.19,198.73 0,88.47 -34.45,171.65 -97,234.2l66.28 66.28c80.26,-80.26 124.46,-186.97 124.46,-300.48 0,-113.51 -44.2,-220.22 -124.46,-300.48l0 0zm-300.48 347.35c-25.85,0 -46.87,-21.03 -46.87,-46.87 0,-25.84 21.02,-46.87 46.87,-46.87 25.84,0 46.87,21.03 46.87,46.87 0,25.84 -21.03,46.87 -46.87,46.87z"/>
   <polygon class="fil0" points="1333.74,2178.66 1521.21,2178.66 1521.21,2272.4 1333.74,2272.4 "/>
  </g>
 </g>
</svg>
